<?xml version="1.0" encoding="UTF-8"?>
<svg width="110px" height="90px" viewBox="0 0 110 90" version="1.1" xmlns="http://www.w3.org/2000/svg" xmlns:xlink="http://www.w3.org/1999/xlink">
    <!-- Generator: Sketch 48.2 (47327) - http://www.bohemiancoding.com/sketch -->
    <title>Group 3</title>
    <desc>Created with Sketch.</desc>
    <defs>
        <path d="M3,0 L99,-4.4408921e-16 C100.656854,6.60946255e-15 102,1.34314575 102,3 L102,61.718059 C102,63.3749132 100.656854,64.718059 99,64.718059 L38.9210526,64.718059 L18.0111528,81.4153765 C17.1480131,82.104625 15.8895537,81.9636584 15.2003051,81.1005187 C14.9173033,80.746118 14.7631579,80.3060541 14.7631579,79.8525237 L14.7631579,64.718059 L3,64.718059 C1.34314575,64.718059 5.53197664e-15,63.3749132 5.32907052e-15,61.718059 L-4.4408921e-16,3 C-6.46995335e-16,1.34314575 1.34314575,-3.6924437e-15 3,-3.99680289e-15 Z" id="path-1"></path>
    </defs>
    <g id="Index---Desktop" stroke="none" stroke-width="1" fill="none" fill-rule="evenodd" transform="translate(-723.000000, -934.000000)">
        <g id="Group-3" transform="translate(727.000000, 938.000000)">
            <g id="Rectangle-11">
                <use fill="#212121" fill-rule="evenodd" xlink:href="#path-1"></use>
                <path stroke="#FFFFFF" stroke-width="4" d="M39.621612,66.718059 L19.2591477,82.9782292 C17.5328682,84.3567263 15.0159495,84.074793 13.6374524,82.3485136 C13.0714488,81.6397123 12.7631579,80.7595845 12.7631579,79.8525237 L12.7631579,66.718059 L3,66.718059 C0.238576251,66.718059 -2,64.4794827 -2,61.718059 L-2,3 C-2,0.238576251 0.238576251,-2 3,-2 L99,-2 C101.761424,-2 104,0.238576251 104,3 L104,61.718059 C104,64.4794827 101.761424,66.718059 99,66.718059 L39.621612,66.718059 Z"></path>
            </g>
            <g id="Group-2" transform="translate(17.447368, 20.802632)" fill="#FFFFFF">
                <circle id="Oval-4" cx="33.5526316" cy="10.0657895" r="10.0657895"></circle>
                <polygon id="Triangle" points="9.39473684 1.34210526 18.7894737 19.4605263 0 19.4605263"></polygon>
                <rect id="Rectangle" x="48.9868421" y="0.671052632" width="18.7894737" height="18.7894737"></rect>
            </g>
        </g>
    </g>
</svg>