<?xml version="1.0" encoding="UTF-8"?>
<svg width="122px" height="113px" viewBox="0 0 122 113" version="1.1" xmlns="http://www.w3.org/2000/svg" xmlns:xlink="http://www.w3.org/1999/xlink">
    <!-- Generator: Sketch 48.2 (47327) - http://www.bohemiancoding.com/sketch -->
    <title>Group 4</title>
    <desc>Created with Sketch.</desc>
    <defs></defs>
    <g id="Index---Desktop" stroke="none" stroke-width="1" fill="none" fill-rule="evenodd" transform="translate(-445.000000, -919.000000)">
        <g id="Group-4" transform="translate(433.000000, 916.000000)" fill="#212121">
            <path d="M95.7210574,12.9478862 L96.7619711,6.70240405 C97.0834297,4.77365217 98.7521901,3.36 100.707547,3.36 L106.727652,3.36 C108.683009,3.36 110.351769,4.77365217 110.673228,6.70240405 L111.768642,13.2748889 L117.703851,16.7015837 L123.943497,14.3639977 C125.774575,13.6780131 127.833214,14.416376 128.810892,16.1097645 L131.820945,21.3233287 C132.798623,23.0167172 132.408745,25.1687323 130.899126,26.4114995 L125.626923,30.7517485 L125.626923,37.3944379 L130.899126,41.7346869 C132.408745,42.9774542 132.798623,45.1294692 131.820945,46.8228577 L128.810892,52.0364219 C127.833214,53.7298104 125.774575,54.4681733 123.943497,53.7821887 L117.703851,51.4446027 L111.768642,54.8712975 L110.673228,61.4437824 C110.351769,63.3725342 108.683009,64.7861864 106.727652,64.7861864 L100.707547,64.7861864 C98.7521901,64.7861864 97.0834297,63.3725342 96.7619711,61.4437824 L95.7210574,55.1983002 L89.4209046,51.5609053 L83.4917016,53.7821887 C81.6606241,54.4681733 79.6019852,53.7298104 78.6243069,52.0364219 L75.6142542,46.8228577 C74.6365759,45.1294692 75.0264543,42.9774542 76.5360731,41.7346869 L81.2963913,37.8158382 L81.2963913,30.3303482 L76.5360731,26.4114995 C75.0264543,25.1687323 74.6365759,23.0167172 75.6142542,21.3233287 L78.6243069,16.1097645 C79.6019852,14.416376 81.6606241,13.6780131 83.4917016,14.3639977 L89.4209046,16.5852811 L95.7210574,12.9478862 Z M103.461657,44.3107909 C109.115781,44.3107909 113.699355,39.7272175 113.699355,34.0730932 C113.699355,28.4189689 109.115781,23.8353955 103.461657,23.8353955 C97.8075327,23.8353955 93.2239593,28.4189689 93.2239593,34.0730932 C93.2239593,39.7272175 97.8075327,44.3107909 103.461657,44.3107909 Z" id="Combined-Shape" transform="translate(103.717599, 34.073093) rotate(-6.000000) translate(-103.717599, -34.073093) "></path>
            <path d="M99.1725408,74.7833245 L99.9131386,70.339738 C100.234597,68.4109861 101.903358,66.9973339 103.858714,66.9973339 L107.473798,66.9973339 C109.429154,66.9973339 111.097915,68.4109861 111.419373,70.339738 L112.204229,75.0488721 L117.024007,77.8315724 L121.494665,76.1567103 C123.325742,75.4707257 125.384381,76.2090885 126.36206,77.902477 L128.169601,81.0332311 C129.14728,82.7266196 128.757401,84.8786346 127.247782,86.1214019 L123.458059,89.2412251 L123.458059,94.6355233 L127.247782,97.7553465 C128.757401,98.9981138 129.14728,101.150129 128.169601,102.843517 L126.36206,105.974271 C125.384381,107.66766 123.325742,108.406023 121.494665,107.720038 L117.024007,106.045176 L112.204229,108.827876 L111.419373,113.53701 C111.097915,115.465762 109.429154,116.879414 107.473798,116.879414 L103.858714,116.879414 C101.903358,116.879414 100.234597,115.465762 99.9131386,113.53701 L99.1725408,109.093424 L94.0564048,106.139621 L89.8378471,107.720038 C88.0067696,108.406023 85.9481307,107.66766 84.9704524,105.974271 L83.1629107,102.843517 C82.1852324,101.150129 82.5751109,98.9981138 84.0847297,97.7553465 L87.4587686,94.9777279 L87.4587686,88.8990205 L84.0847297,86.1214019 C82.5751109,84.8786346 82.1852324,82.7266196 83.1629107,81.0332311 L84.9704524,77.902477 C85.9481307,76.2090885 88.0067696,75.4707257 89.8378471,76.1567103 L94.0564048,77.7371271 L99.1725408,74.7833245 Z M105.458414,100.252054 C110.049933,100.252054 113.772094,96.5298929 113.772094,91.9383742 C113.772094,87.3468555 110.049933,83.6246941 105.458414,83.6246941 C100.866895,83.6246941 97.1447339,87.3468555 97.1447339,91.9383742 C97.1447339,96.5298929 100.866895,100.252054 105.458414,100.252054 Z" id="Combined-Shape" transform="translate(105.666256, 91.938374) rotate(34.000000) translate(-105.666256, -91.938374) "></path>
            <path d="M39.1388929,43.1557236 L40.4651068,35.1984407 C40.7865654,33.2696888 42.4553258,31.8560367 44.4106825,31.8560367 L52.7155589,31.8560367 C54.6709155,31.8560367 56.3396759,33.2696888 56.6611346,35.1984407 L58.0515792,43.5411087 L65.0464483,47.5795983 L72.9666331,44.6124247 C74.7977105,43.9264401 76.8563495,44.664803 77.8340278,46.3581914 L81.986466,53.5504254 C82.9641443,55.2438139 82.5742658,57.3958289 81.064647,58.6385962 L74.384088,64.1382497 L74.384088,71.9669107 L81.064647,77.4665641 C82.5742658,78.7093314 82.9641443,80.8613465 81.986466,82.554735 L77.8340278,89.7469689 C76.8563495,91.4403574 74.7977105,92.1787203 72.9666331,91.4927357 L65.0464483,88.5255621 L58.0515792,92.5640516 L56.6611346,100.90672 C56.3396759,102.835472 54.6709155,104.249124 52.7155589,104.249124 L44.4106825,104.249124 C42.4553258,104.249124 40.7865654,102.835472 40.4651068,100.90672 L39.1388929,92.9494367 L31.7139243,88.6626291 L24.1596082,91.4927357 C22.3285308,92.1787203 20.2698919,91.4403574 19.2922136,89.7469689 L15.1397754,82.554735 C14.162097,80.8613465 14.5519755,78.7093314 16.0615943,77.4665641 L22.1388776,72.4635469 L22.1388776,63.6416135 L16.0615943,58.6385962 C14.5519755,57.3958289 14.162097,55.2438139 15.1397754,53.5504254 L19.2922136,46.3581914 C20.2698919,44.664803 22.3285308,43.9264401 24.1596082,44.6124247 L31.7139243,47.4425313 L39.1388929,43.1557236 Z M48.2614828,80.1180947 C54.9250825,80.1180947 60.3269973,74.7161798 60.3269973,68.0525802 C60.3269973,61.3889805 54.9250825,55.9870657 48.2614828,55.9870657 C41.5978831,55.9870657 36.1959683,61.3889805 36.1959683,68.0525802 C36.1959683,74.7161798 41.5978831,80.1180947 48.2614828,80.1180947 Z" id="Combined-Shape" transform="translate(48.563121, 68.052580) rotate(30.000000) translate(-48.563121, -68.052580) "></path>
        </g>
    </g>
</svg>