<?xml version="1.0" encoding="UTF-8"?>
<svg width="29px" height="39px" viewBox="0 0 29 39" version="1.1" xmlns="http://www.w3.org/2000/svg" xmlns:xlink="http://www.w3.org/1999/xlink">
    <!-- Generator: Sketch 48.2 (47327) - http://www.bohemiancoding.com/sketch -->
    <title>Group 11</title>
    <desc>Created with Sketch.</desc>
    <defs></defs>
    <g id="Index---Desktop" stroke="none" stroke-width="1" fill="none" fill-rule="evenodd" transform="translate(-498.000000, -367.000000)">
        <g id="Group-12" transform="translate(100.000000, 281.000000)" fill="#FFFFFF" stroke="#FFFFFF">
            <g id="Group-11" transform="translate(412.500000, 105.500000) rotate(90.000000) translate(-412.500000, -105.500000) translate(393.000000, 91.000000)">
                <g id="Group-9" transform="translate(11.500000, 18.500000) scale(-1, 1) translate(-11.500000, -18.500000) translate(0.000000, 8.000000)">
                    <path d="M15.5070227,8.7027027 L10.4969044,3.69258443 C10.1063801,3.30206014 10.1063801,2.66889516 10.4969044,2.27837087 L11.720008,1.05526724 C12.1105323,0.664742953 12.7436973,0.664742953 13.1342216,1.05526724 L21.8297239,9.75076955 C22.2202482,10.1412938 22.2202482,10.7744588 21.8297239,11.1649831 L21.8271171,11.1675899 C21.7895725,11.2254308 21.7454408,11.2802422 21.6947221,11.3309608 L12.9992198,20.0264632 C12.6086955,20.4169874 11.9755305,20.4169874 11.5850062,20.0264632 L10.3619026,18.8033595 C9.9713783,18.4128352 9.9713783,17.7796703 10.3619026,17.389146 L15.3186161,12.4324324 L1,12.4324324 C0.44771525,12.4324324 6.76353751e-17,11.9847172 0,11.4324324 L0,9.7027027 C-6.76353751e-17,9.15041795 0.44771525,8.7027027 1,8.7027027 L15.5070227,8.7027027 Z" id="Combined-Shape"></path>
                </g>
                <g id="Group-9" transform="translate(16.000000, 0.000000)">
                    <path d="M15.5070227,8.7027027 L10.4969044,3.69258443 C10.1063801,3.30206014 10.1063801,2.66889516 10.4969044,2.27837087 L11.720008,1.05526724 C12.1105323,0.664742953 12.7436973,0.664742953 13.1342216,1.05526724 L21.8297239,9.75076955 C22.2202482,10.1412938 22.2202482,10.7744588 21.8297239,11.1649831 L21.8271171,11.1675899 C21.7895725,11.2254308 21.7454408,11.2802422 21.6947221,11.3309608 L12.9992198,20.0264632 C12.6086955,20.4169874 11.9755305,20.4169874 11.5850062,20.0264632 L10.3619026,18.8033595 C9.9713783,18.4128352 9.9713783,17.7796703 10.3619026,17.389146 L15.3186161,12.4324324 L1,12.4324324 C0.44771525,12.4324324 6.76353751e-17,11.9847172 0,11.4324324 L0,9.7027027 C-6.76353751e-17,9.15041795 0.44771525,8.7027027 1,8.7027027 L15.5070227,8.7027027 Z" id="Combined-Shape"></path>
                </g>
            </g>
        </g>
    </g>
</svg>