<?xml version="1.0" encoding="UTF-8"?>
<svg width="39px" height="29px" viewBox="0 0 39 29" version="1.1" xmlns="http://www.w3.org/2000/svg" xmlns:xlink="http://www.w3.org/1999/xlink">
    <!-- Generator: Sketch 48.2 (47327) - http://www.bohemiancoding.com/sketch -->
    <title>Group 11</title>
    <desc>Created with Sketch.</desc>
    <defs></defs>
    <g id="Index---Desktop" stroke="none" stroke-width="1" fill="none" fill-rule="evenodd" transform="translate(-493.000000, -372.000000)">
        <g id="Group-12" transform="translate(100.000000, 281.000000)" fill="#AFDECB" stroke="#AFDECB">
            <g id="Group-11" transform="translate(393.000000, 91.000000)">
                <g id="Group-9" transform="translate(11.500000, 18.500000) scale(-1, 1) translate(-11.500000, -18.500000) translate(0.000000, 8.000000)">
                    <rect id="Rectangle-9" x="0" y="8.7027027" width="19.2702703" height="3.72972973" rx="1"></rect>
                    <rect id="Rectangle-9" transform="translate(16.028312, 14.360053) rotate(-45.000000) translate(-16.028312, -14.360053) " x="8.87966369" y="12.4951885" width="14.2972973" height="3.72972973" rx="1"></rect>
                    <rect id="Rectangle-9" transform="translate(16.163314, 6.721677) rotate(45.000000) translate(-16.163314, -6.721677) " x="9.01466553" y="4.85681213" width="14.2972973" height="3.72972973" rx="1"></rect>
                </g>
                <g id="Group-9" transform="translate(16.000000, 0.000000)">
                    <rect id="Rectangle-9" x="0" y="8.7027027" width="19.2702703" height="3.72972973" rx="1"></rect>
                    <rect id="Rectangle-9" transform="translate(16.028312, 14.360053) rotate(-45.000000) translate(-16.028312, -14.360053) " x="8.87966369" y="12.4951885" width="14.2972973" height="3.72972973" rx="1"></rect>
                    <rect id="Rectangle-9" transform="translate(16.163314, 6.721677) rotate(45.000000) translate(-16.163314, -6.721677) " x="9.01466553" y="4.85681213" width="14.2972973" height="3.72972973" rx="1"></rect>
                </g>
            </g>
        </g>
    </g>
</svg>